<svg width="1090" height="823" viewBox="0 0 1090 823" fill="none" xmlns="http://www.w3.org/2000/svg">
<g id="index 1">
<g clip-path="url(#clip0)">
<path id="Vector" d="M933.737 445.567C933.737 572.077 859.567 683.997 745.867 752.127C672.967 795.817 583.807 821.507 487.537 821.507C359.287 821.507 261.457 773.037 187.867 698.787C120.037 630.367 72.8066 540.037 41.3366 445.567C-99.1534 23.7766 135.537 -91.2934 487.537 69.6266C711.657 172.097 933.737 237.947 933.737 445.567Z" fill="url(#paint0_linear)"/>
<path id="Vector_2" d="M745.867 224.757V753.127C672.967 796.817 583.807 822.507 487.537 822.507C359.287 822.507 261.457 774.037 187.867 699.787V224.757H745.867Z" fill="#F2F2F2"/>
<path id="Vector_3" d="M241.537 482.208C270.753 472.915 301.066 467.511 331.693 466.135C347.04 465.482 362.415 466.084 377.664 467.934C392.765 469.931 407.684 473.125 422.28 477.486C436.7 481.661 450.922 486.484 465.294 490.819C479.894 495.278 494.736 498.9 509.749 501.667C524.684 504.37 539.768 506.168 554.919 507.051C569.922 507.923 585.072 508.093 600.033 506.495C614.008 505.149 627.695 501.68 640.623 496.206C652.68 490.944 663.823 483.797 673.634 475.032C676.082 472.847 678.437 470.565 680.7 468.187C682.035 466.792 679.916 464.667 678.579 466.066C659.454 486.058 634.317 498.454 607.052 502.593C592.199 504.849 577.062 504.979 562.078 504.398C546.759 503.807 531.491 502.264 516.363 499.779C501.418 497.3 486.634 493.935 472.088 489.701C457.8 485.562 443.707 480.789 429.469 476.486C415.106 471.976 400.444 468.483 385.59 466.032C370.695 463.763 355.638 462.718 340.572 462.907C310.466 463.389 280.553 467.818 251.599 476.083C247.963 477.104 244.343 478.182 240.74 479.316C238.904 479.891 239.688 482.788 241.537 482.208H241.537Z" fill="#3F3D56"/>
<path id="Vector_4" d="M241.537 558.208C270.753 548.915 301.066 543.511 331.693 542.135C347.04 541.482 362.415 542.084 377.664 543.934C392.765 545.931 407.684 549.125 422.28 553.486C436.7 557.661 450.922 562.484 465.294 566.819C479.894 571.278 494.736 574.9 509.749 577.667C524.684 580.37 539.768 582.168 554.919 583.051C569.922 583.923 585.072 584.093 600.033 582.495C614.008 581.149 627.695 577.68 640.623 572.206C652.68 566.944 663.823 559.797 673.634 551.032C676.082 548.847 678.437 546.565 680.7 544.187C682.035 542.792 679.916 540.667 678.579 542.066C659.454 562.058 634.317 574.454 607.052 578.593C592.199 580.849 577.062 580.979 562.078 580.398C546.759 579.807 531.491 578.264 516.363 575.779C501.418 573.3 486.634 569.935 472.088 565.701C457.8 561.562 443.707 556.789 429.469 552.486C415.106 547.976 400.444 544.483 385.59 542.032C370.695 539.763 355.638 538.718 340.572 538.907C310.466 539.389 280.553 543.818 251.599 552.083C247.963 553.104 244.343 554.182 240.74 555.316C238.904 555.891 239.688 558.788 241.537 558.208H241.537Z" fill="#3F3D56"/>
<path id="Vector_5" d="M241.537 413.208C270.753 403.915 301.066 398.511 331.693 397.135C347.04 396.482 362.415 397.084 377.664 398.934C392.765 400.931 407.684 404.125 422.28 408.486C436.7 412.661 450.922 417.484 465.294 421.819C479.894 426.278 494.736 429.9 509.749 432.667C524.684 435.37 539.768 437.168 554.919 438.051C569.922 438.923 585.072 439.093 600.033 437.495C614.008 436.149 627.695 432.68 640.623 427.206C652.68 421.944 663.823 414.797 673.634 406.032C676.082 403.847 678.437 401.565 680.7 399.187C682.035 397.792 679.916 395.667 678.579 397.066C659.454 417.058 634.317 429.454 607.052 433.593C592.199 435.849 577.062 435.979 562.078 435.398C546.759 434.807 531.491 433.264 516.363 430.779C501.418 428.3 486.634 424.935 472.088 420.701C457.8 416.562 443.707 411.789 429.469 407.486C415.106 402.976 400.444 399.483 385.59 397.032C370.695 394.763 355.638 393.718 340.572 393.907C310.466 394.389 280.553 398.818 251.599 407.083C247.963 408.104 244.343 409.182 240.74 410.316C238.904 410.891 239.688 413.788 241.537 413.208H241.537Z" fill="#3F3D56"/>
<path id="Vector_6" d="M237.963 282.749C245.221 279.534 253.536 280.095 261.069 281.959C269.191 283.969 276.84 287.466 284.836 289.883C299.148 294.147 314.35 294.436 328.814 290.717C336.956 288.64 344.726 285.31 351.845 280.845C353.476 279.82 351.972 277.224 350.331 278.255C337.641 286.179 322.973 290.361 308.012 290.32C300.508 290.309 293.046 289.21 285.858 287.058C277.921 284.678 270.333 281.223 262.293 279.173C253.774 277.002 244.638 276.531 236.449 280.159C234.687 280.939 236.212 283.525 237.963 282.749V282.749Z" fill="#3F3D56"/>
<g id="dot_3">
<path id="Vector_7" d="M460.867 742.757C486.272 742.757 506.867 722.162 506.867 696.757C506.867 671.351 486.272 650.757 460.867 650.757C435.462 650.757 414.867 671.351 414.867 696.757C414.867 722.162 435.462 742.757 460.867 742.757Z" fill="#3F3D56"/>
</g>
<g id="dot_3_2">
<path id="Vector_8" d="M212.867 130.757C226.674 130.757 237.867 119.564 237.867 105.757C237.867 91.9495 226.674 80.7566 212.867 80.7566C199.06 80.7566 187.867 91.9495 187.867 105.757C187.867 119.564 199.06 130.757 212.867 130.757Z" fill="#F2F2F2"/>
</g>
<g id="dot_2">
<path id="Vector_9" d="M431.867 193.757C441.255 193.757 448.867 186.145 448.867 176.757C448.867 167.368 441.255 159.757 431.867 159.757C422.478 159.757 414.867 167.368 414.867 176.757C414.867 186.145 422.478 193.757 431.867 193.757Z" fill="#F2F2F2"/>
</g>
<g id="dot_1">
<path id="Vector_10" d="M155.867 356.757C165.255 356.757 172.867 349.145 172.867 339.757C172.867 330.368 165.255 322.757 155.867 322.757C146.478 322.757 138.867 330.368 138.867 339.757C138.867 349.145 146.478 356.757 155.867 356.757Z" fill="#F2F2F2"/>
</g>
<path id="Vector_11" d="M87.4217 213.464H85.547V548.709H87.4217V213.464Z" fill="#3F3D56"/>
<g id="eclipse_1">
<path id="Vector_12" d="M86.8459 519.978C107.036 519.978 123.403 482.628 123.403 436.554C123.403 390.48 107.036 353.13 86.8459 353.13C66.6562 353.13 50.2892 390.48 50.2892 436.554C50.2892 482.628 66.6562 519.978 86.8459 519.978Z" fill="#3F3D56"/>
<path id="Vector_13" d="M86.8459 329.696C107.036 329.696 123.403 292.346 123.403 246.272C123.403 200.198 107.036 162.847 86.8459 162.847C66.6562 162.847 50.2892 200.198 50.2892 246.272C50.2892 292.346 66.6562 329.696 86.8459 329.696Z" fill="#3F3D56"/>
</g>
<path id="Vector_14" d="M87.7439 178.114L85.9479 177.576C86.0614 177.197 97.0826 139.429 78.9859 115.115C68.7648 101.383 51.2256 94.4205 26.8553 94.4205V92.5458C51.8544 92.5458 69.9012 99.765 80.4949 114.003C99.1519 139.078 87.8602 177.727 87.7439 178.114Z" fill="#3F3D56"/>
<path id="Vector_15" d="M26.8554 116.917C39.7975 116.917 50.2892 106.425 50.2892 93.4832C50.2892 80.541 39.7975 70.0494 26.8554 70.0494C13.9132 70.0494 3.42157 80.541 3.42157 93.4832C3.42157 106.425 13.9132 116.917 26.8554 116.917Z" fill="#3F3D56"/>
<path id="Vector_16" d="M770.74 624.677L753.207 785.976H874.182L879.441 773.704L886.454 785.976H1000.42C1000.42 785.976 991.649 619.418 975.87 614.158C960.091 608.898 770.74 624.677 770.74 624.677Z" fill="#2F2E41"/>
<path id="Vector_17" d="M874.182 270.521C908.072 270.521 935.545 243.047 935.545 209.157C935.545 175.266 908.072 147.793 874.182 147.793C840.291 147.793 812.818 175.266 812.818 209.157C812.818 243.047 840.291 270.521 874.182 270.521Z" fill="#FFB8B8"/>
<path id="Vector_18" d="M839.117 247.728C839.117 247.728 844.376 303.832 839.117 307.339C833.857 310.845 923.273 309.092 923.273 309.092C923.273 309.092 911 258.248 923.273 233.702L839.117 247.728Z" fill="#FFB8B8"/>
<path id="Vector_19" d="M870.675 295.066C870.675 295.066 915.788 302.092 919.531 288.06L942.558 319.612L944.312 635.197C944.312 635.197 756.714 657.989 749.701 621.171C742.688 584.353 821.584 293.313 821.584 293.313L841.446 292.027C841.446 292.027 867.169 295.066 870.675 295.066Z" fill="#D0CDE1"/>
<path id="Vector_20" d="M841.148 277.629L811.065 288.053L725.155 309.092L728.662 519.482C728.662 519.482 655.025 729.872 688.337 745.652C721.649 761.431 768.987 724.613 783.013 698.314C797.039 672.015 846.13 307.339 846.13 300.326C846.13 293.313 841.148 277.629 841.148 277.629Z" fill="#3F3D56"/>
<path id="Vector_21" d="M918.404 277.629L930.286 288.053L1014.44 326.625L972.364 538.768C972.364 538.768 1028.47 731.626 1007.43 742.145C986.39 752.665 954.831 782.47 947.818 764.937C940.805 747.405 899.508 297.01 918.404 277.629Z" fill="#3F3D56"/>
<path id="Vector_22" d="M967.104 558.054C967.104 558.054 888.208 524.742 886.454 554.547C884.701 584.352 975.87 605.392 975.87 596.625C975.87 587.859 967.104 558.054 967.104 558.054Z" fill="#FFB8B8"/>
<path id="Vector_23" d="M774.246 545.781C774.246 545.781 865.415 614.158 830.35 631.69C795.285 649.223 749.701 570.326 749.701 570.326L774.246 545.781Z" fill="#FFB8B8"/>
<path id="Vector_24" d="M901.425 119.268C901.713 118.658 902.177 118.148 902.757 117.804C903.338 117.46 904.008 117.296 904.681 117.336C876.588 115.655 846.997 118.93 823.494 134.411C816.911 138.747 810.764 144.049 803.271 146.492L809.354 151.262L802.086 153.478L812.781 160.39C811.701 161.618 810.316 162.538 808.765 163.058C807.215 163.577 805.554 163.677 803.953 163.348C808.601 164.706 812.023 168.842 813.761 173.362C815.5 177.882 815.812 182.804 816.106 187.638C817.902 180.664 825.514 176.558 832.703 176.141C839.893 175.724 846.905 178.096 853.902 179.801C869.143 183.505 884.971 184.114 900.451 181.592C895.194 192.141 899.628 204.723 904.09 215.632L912.999 237.413C917.946 237.911 921.442 232.992 925.168 229.701C928.565 226.702 915.043 253.078 917.136 252.111C919.856 250.856 948.558 219.168 949.902 216.49C956.034 204.276 959.713 190.653 959.16 176.997C958.606 163.341 953.61 149.679 944.197 139.769C937.806 133.042 928.965 131.864 922.451 126.273C919.887 124.073 919.877 122.353 916.353 121.07C915.183 120.644 901.618 118.839 901.425 119.268Z" fill="#2F2E41"/>
<path id="Vector_25" d="M737.428 314.352L725.155 309.092L626.973 470.391C626.973 470.391 609.441 512.469 640.999 531.755C672.558 551.041 746.194 608.898 746.194 608.898L788.272 544.028C788.272 544.028 702.363 503.703 707.623 487.924C712.883 472.144 740.935 430.066 740.935 430.066L737.428 314.352Z" fill="#3F3D56"/>
<path id="Vector_26" d="M991.649 323.118L1014.44 326.625C1014.44 326.625 1109.12 512.469 1086.33 547.534C1063.53 582.599 970.61 631.69 970.61 631.69C970.61 631.69 968.857 573.833 953.078 552.794L1007.43 531.755L977.623 416.04L991.649 323.118Z" fill="#3F3D56"/>
<rect id="Rectangle 1" width="331" height="8" transform="matrix(1 0 0 -1 302 749)" fill="#3F3F3F"/>
</g>
</g>
<defs>
<linearGradient id="paint0_linear" x1="150.5" y1="164" x2="567.5" y2="906.5" gradientUnits="userSpaceOnUse">
<stop stop-color="#19B3DA"/>
<stop offset="1" stop-color="#2F54DB"/>
</linearGradient>
<clipPath id="clip0">
<rect width="1089.87" height="822.507" fill="white"/>
</clipPath>
</defs>
</svg>
